{
  "title": "The Wolf of Wall Street 2013 DVDSCR X264 AAC-COBRA",
  "uid": 9462781,
  "size": 1658867026,
  "categoryP": "video",
  "categoryS": "movies",
  "magnet": "?xt=urn:btih:dc13c1a483544dfc2a181b44b789591d0d24042d&amp;dn=The+Wolf+of+Wall+Street+2013+DVDSCR+X264+AAC-COBRA&amp;tr=udp%3A%2F%2Ftracker.openbittorrent.com%3A80&amp;tr=udp%3A%2F%2Fopen.demonii.com%3A1337&amp;tr=udp%3A%2F%2Ftracker.coppersurfer.tk%3A6969&amp;tr=udp%3A%2F%2Fexodus.desync.com%3A6969",
  "seeders": 70,
  "leechers": 6,
  "uploader": "TKTh3K1ng",
  "files": 3,
  "time": 1389383654,
  "description": "[img]http://imageshack.com/a/img545/2469/dyhr.png[/img]\n\nThe Wolf of Wall Street 2013 DVDSCR X264 AAC-COBRA\n\n[img]http://lookpic.com/O/i2/1013/1FintKJy.jpeg[/img]\n\nIMDB &lt;a href=&quot;\nhttp://www.imdb.com/title/tt0993846/&quot; rel=&quot;nofollow&quot; target=&quot;_NEW&quot;&gt;\nhttp://www.imdb.com/title/tt0993846/&lt;/a&gt;\n\nFile size                        : 1.52 GiB\nDuration                         : 2h 59mn\nOverall bit rate                 : 1 211 Kbps\n\n\nVideo\nID                               : 1\nFormat                           : AVC\nFormat/Info                      : Advanced Video Codec\nFormat profile                   : &lt;a class=&quot;__cf_email__&quot; href=&quot;/cdn-cgi/l/email-protection&quot; data-cfemail=&quot;bdf5d4dad5fdf18e938d&quot;&gt;[email&amp;#160;protected]&lt;/a&gt;&lt;script cf-hash='f9e31' type=&quot;text/javascript&quot;&gt;\n/* &lt;![CDATA[ */!function(){try{var t=&quot;currentScript&quot;in document?document.currentScript:function(){for(var t=document.getElementsByTagName(&quot;script&quot;),e=t.length;e--;)if(t[e].getAttribute(&quot;cf-hash&quot;))return t[e]}();if(t&amp;&amp;t.previousSibling){var e,r,n,i,c=t.previousSibling,a=c.getAttribute(&quot;data-cfemail&quot;);if(a){for(e=&quot;&quot;,r=parseInt(a.substr(0,2),16),n=2;a.length-n;n+=2)i=parseInt(a.substr(n,2),16)^r,e+=String.fromCharCode(i);e=document.createTextNode(e),c.parentNode.replaceChild(e,c)}}}catch(u){}}();/* ]]&gt; */&lt;/script&gt;\nFormat settings, CABAC           : Yes\nFormat settings, ReFrames        : 5 frames\nFormat settings, GOP             : M=4, N=24\nCodec ID                         : avc1\nCodec ID/Info                    : Advanced Video Coding\nDuration                         : 2h 59mn\nBit rate mode                    : Variable\nBit rate                         : 1 050 Kbps\nMaximum bit rate                 : 5 576 Kbps\nWidth                            : 720 pixels\nHeight                           : 304 pixels\nDisplay aspect ratio             : 2.35:1\nFrame rate mode                  : Constant\nFrame rate                       : 23.976 fps\nColor space                      : YUV\nChroma subsampling               : 4:2:0\nBit depth                        : 8 bits\nScan type                        : Progressive\nBits/(Pixel*Frame)               : 0.200\nStream size                      : 1.32 GiB (87%)\nWriting library                  : x264 core 138 r2358 9e941d1\n\n\nAudio\nID                               : 2\nFormat                           : AAC\nFormat/Info                      : Advanced Audio Codec\nFormat profile                   : LC\nCodec ID                         : 40\nDuration                         : 2h 59mn\nBit rate mode                    : Variable\nBit rate                         : 157 Kbps\nMaximum bit rate                 : 267 Kbps\nChannel(s)                       : 2 channels\nChannel positions                : Front: L R\nSampling rate                    : 48.0 KHz\nCompression mode                 : Lossy\nStream size                      : 202 MiB (13%)\n\n\nsource &gt;&gt;&gt;&gt;&gt;&gt;DVDScr x264-HaM.... Thanks \n\nsample provided\n\nScreenshots :\n\n[img]http://lookpic.com/O/i2/1738/20NOUoM0.png[/img]\n\n[img]http://lookpic.com/O/i2/1175/6qo5szG6.png[/img]\n\n[img]http://lookpic.com/O/i2/1294/qQIrRU9i.png[/img]\n\n[img]http://lookpic.com/O/i2/1581/kgGg5Dcm.png[/img]\n\n[img]http://lookpic.com/O/i2/549/wvyLGdRH.png[/img]\n\n[img]http://lookpic.com/O/i2/1798/VLCG5deN.png[/img]\n\n[img]http://lookpic.com/O/i2/579/qlSAemm.png[/img]\n",
  "parsed": {
    "xt": "urn:btih:dc13c1a483544dfc2a181b44b789591d0d24042d",
    "dn": "The Wolf of Wall Street 2013 DVDSCR X264 AAC-COBRA",
    "tr": [
      "udp://exodus.desync.com:6969",
      "udp://open.demonii.com:1337",
      "udp://tracker.coppersurfer.tk:6969",
      "udp://tracker.openbittorrent.com:80"
    ],
    "infoHash": "dc13c1a483544dfc2a181b44b789591d0d24042d",
    "infoHashBuffer": {
      "type": "Buffer",
      "data": [
        220,
        19,
        193,
        164,
        131,
        84,
        77,
        252,
        42,
        24,
        27,
        68,
        183,
        137,
        89,
        29,
        13,
        36,
        4,
        45
      ]
    },
    "name": "The Wolf of Wall Street 2013 DVDSCR X264 AAC-COBRA",
    "announce": [
      "udp://exodus.desync.com:6969",
      "udp://open.demonii.com:1337",
      "udp://tracker.coppersurfer.tk:6969",
      "udp://tracker.openbittorrent.com:80"
    ],
    "urlList": []
  },
  "previous": 2,
  "peers": 1,
  "last_updated": "2016-12-27T14:53:12.038Z"
}